<?xml version="1.0" encoding="UTF-8" standalone="no"?>
<!-- Created with Inkscape (http://www.inkscape.org/) -->

<svg
   width="210mm"
   height="297mm"
   viewBox="0 0 210 297"
   version="1.1"
   id="svg1"
   inkscape:version="1.2.1 (9c6d41e, 2022-07-14)"
   sodipodi:docname="cover.svg"
   xml:space="preserve"
   inkscape:export-filename="cover.png"
   inkscape:export-xdpi="300"
   inkscape:export-ydpi="300"
   xmlns:inkscape="http://www.inkscape.org/namespaces/inkscape"
   xmlns:sodipodi="http://sodipodi.sourceforge.net/DTD/sodipodi-0.dtd"
   xmlns="http://www.w3.org/2000/svg"
   xmlns:svg="http://www.w3.org/2000/svg"><sodipodi:namedview
     id="namedview1"
     pagecolor="#ffffff"
     bordercolor="#999999"
     borderopacity="1"
     inkscape:showpageshadow="2"
     inkscape:pageopacity="0"
     inkscape:pagecheckerboard="0"
     inkscape:deskcolor="#d1d1d1"
     inkscape:document-units="mm"
     inkscape:zoom="0.70710678"
     inkscape:cx="469.5189"
     inkscape:cy="736.80527"
     inkscape:window-width="1512"
     inkscape:window-height="916"
     inkscape:window-x="0"
     inkscape:window-y="38"
     inkscape:window-maximized="1"
     inkscape:current-layer="layer3"
     inkscape:export-bgcolor="#ffffffff"
     showgrid="false" /><defs
     id="defs1" /><g
     inkscape:groupmode="layer"
     id="layer3"
     inkscape:label="Space"><rect
       style="display:inline;fill:#333333;stroke-width:0.264285"
       id="rect1"
       width="209.97502"
       height="288.03143"
       x="0.02444113"
       y="-0.028905364" /><path
       id="path3"
       style="fill:#f9f9f9;stroke-width:0.264583"
       d="m 70.12363,90.345829 a 13.752781,13.752781 0 0 0 -3.03077,1.212795 13.752781,13.752781 0 0 0 -5.47329,18.663146 13.752781,13.752781 0 0 0 18.66317,5.47329 13.752781,13.752781 0 0 0 2.19037,-1.5297 22.279634,22.279634 0 0 1 -9.98881,-9.3797 22.279634,22.279634 0 0 1 -2.36067,-14.439831 z" /><g
       id="g7"
       transform="matrix(0.44519482,-0.26338183,0.26338183,0.44519482,72.362412,105.51184)"
       style="fill:#f9f9f9;fill-opacity:1"><rect
         style="fill:#f9f9f9;fill-opacity:1;stroke-width:0.265;stroke-dasharray:none"
         id="rect4"
         width="21.83462"
         height="36.734779"
         x="74.079308"
         y="129.6586" /><g
         id="g5"
         style="fill:#f9f9f9;fill-opacity:1;stroke:none"
         transform="translate(0,0.23641968)"><rect
           style="fill:#f9f9f9;fill-opacity:1;stroke:none;stroke-width:0.161875;stroke-opacity:1"
           id="rect5-1"
           width="14.055651"
           height="15.679638"
           x="24.511786"
           y="139.94975" /><rect
           style="fill:#f9f9f9;fill-opacity:1;stroke:none;stroke-width:0.161875;stroke-opacity:1"
           id="rect5-1-3"
           width="14.055651"
           height="15.679638"
           x="39.842518"
           y="139.94975" /><rect
           style="fill:#f9f9f9;fill-opacity:1;stroke:none;stroke-width:0.161875;stroke-opacity:1"
           id="rect5-1-3-6"
           width="14.055651"
           height="15.679638"
           x="55.173252"
           y="139.94975" /></g><g
         id="g6"
         style="fill:#f9f9f9;fill-opacity:1;stroke:none"><rect
           style="fill:#f9f9f9;fill-opacity:1;stroke:none;stroke-width:0.161875;stroke-opacity:1"
           id="rect5-1-2"
           width="14.055651"
           height="15.679638"
           x="100.76433"
           y="140.18617" /><rect
           style="fill:#f9f9f9;fill-opacity:1;stroke:none;stroke-width:0.161875;stroke-opacity:1"
           id="rect5-1-3-0"
           width="14.055651"
           height="15.679638"
           x="116.09506"
           y="140.18617" /><rect
           style="fill:#f9f9f9;fill-opacity:1;stroke:none;stroke-width:0.161875;stroke-opacity:1"
           id="rect5-1-3-6-2"
           width="14.055651"
           height="15.679638"
           x="131.4258"
           y="140.18617" /></g><rect
         style="fill:#f9f9f9;fill-opacity:1;stroke:none;stroke-width:1.0204;stroke-dasharray:none;stroke-opacity:1"
         id="rect6"
         width="40.074726"
         height="2.2836137"
         x="65.535904"
         y="146.88419" /></g></g><g
     inkscape:label="Radio Tower"
     inkscape:groupmode="layer"
     id="layer1"
     style="display:inline"><g
       id="g8"
       style="display:inline;stroke:#cccccc;stroke-opacity:0.5"
       transform="rotate(-13.857234,0.70257048,250.56202)"><circle
         style="fill:none;stroke:#cccccc;stroke-width:0.761433;stroke-dasharray:none;stroke-opacity:0.5"
         id="path4-6"
         cx="76.134644"
         cy="190.35941"
         r="13.87489" /><ellipse
         style="fill:none;stroke:#cccccc;stroke-width:1.09038;stroke-dasharray:none;stroke-opacity:0.5"
         id="path4-6-6"
         cx="76.134644"
         cy="190.35941"
         rx="23.074871"
         ry="23.284252" /><ellipse
         style="fill:none;stroke:#cccccc;stroke-width:1.19062;stroke-dasharray:none;stroke-opacity:0.5"
         id="path4-6-9"
         cx="76.134644"
         cy="190.35941"
         rx="34.637424"
         ry="33.838585" /><ellipse
         style="fill:none;stroke:#cccccc;stroke-width:1.51349;stroke-opacity:0.5"
         id="path4-6-9-1"
         cx="76.134644"
         cy="190.35941"
         rx="50.69965"
         ry="49.530365" /><ellipse
         style="fill:none;stroke:#cccccc;stroke-width:2.09006;stroke-opacity:0.5"
         id="path4-6-9-1-4"
         cx="76.134644"
         cy="190.35941"
         rx="70.01384"
         ry="68.399109" /><ellipse
         style="fill:none;stroke:#cccccc;stroke-width:3.10875;stroke-opacity:0.5"
         id="path4-6-9-1-4-7"
         cx="76.134644"
         cy="190.35941"
         rx="104.13838"
         ry="101.73663" /><ellipse
         style="fill:none;stroke:#cccccc;stroke-width:4.26712;stroke-opacity:0.5"
         id="path4-6-9-1-4-7-5"
         cx="76.134644"
         cy="190.35941"
         rx="142.94228"
         ry="139.6456" /><ellipse
         style="fill:none;stroke:#cccccc;stroke-width:5.84246;stroke-opacity:0.5"
         id="path4-6-9-1-4-7-5-1"
         cx="76.134644"
         cy="190.35941"
         rx="195.71404"
         ry="191.20029" /></g><path
       id="path5"
       style="display:inline;stroke:none;stroke-opacity:0.5;fill:#333333;fill-opacity:1;stroke-width:1.32292;paint-order:markers stroke fill"
       inkscape:transform-center-x="-7.2631725"
       inkscape:transform-center-y="-14.246955"
       transform="rotate(-10.028006,614.86185,48.735798)"
       d="M 81.065875,197.55439 9.7266932,196.95548 43.007798,74.27926 l 6.641614,0.08159 z"
       sodipodi:nodetypes="ccccc" /><path
       style="fill:#cccccc;stroke-width:0.264583"
       d="m 0.01314372,275.64156 c 0,0 45.73013228,-16.44312 104.13284628,-30.08282 58.40272,-13.6397 105.84729,-20.39909 105.84729,-20.39909 l 0.0108,71.87057 -209.98432196,-0.0554 z"
       id="path1"
       sodipodi:nodetypes="czcccc" /><path
       d="m 57.815425,170.58433 c -1.781235,0.77812 -2.867699,2.38243 -2.945946,4.37253 -0.04785,1.40351 0.624853,2.78904 1.801577,3.71495 0.415298,0.31767 0.977273,0.66233 1.253958,0.77077 0.276688,0.10845 0.52613,0.20856 0.555491,0.22945 0.04192,0.0187 -0.03965,1.29878 -0.691585,10.69879 -0.388577,5.44058 -0.603426,8.38399 -1.637489,22.11229 -0.259934,3.51954 -0.671388,9.05442 -0.912946,12.29951 -0.243676,3.23253 -0.76593,10.10402 -1.165491,15.24927 -0.399561,5.14525 -1.772372,22.84568 -3.050914,39.34148 -1.280656,16.48325 -2.350162,30.30796 -2.399749,30.70395 -0.03702,0.39386 -0.01545,0.75202 0.04327,0.79382 0.05872,0.0418 6.318816,1.92036 13.907584,4.1695 7.588768,2.24913 15.59878,4.62111 17.78886,5.27297 l 3.996608,1.17449 15.20083,-11.08837 c 8.363997,-6.11212 15.221737,-11.11773 15.242637,-11.1471 0.0313,-0.0439 -52.277161,-119.80963 -52.457834,-120.11514 -0.06931,-0.10459 0.06864,-0.2829 0.344786,-0.48447 0.240572,-0.18266 0.652414,-0.65258 0.909383,-1.04473 2.028634,-3.06805 0.06742,-7.04037 -3.642833,-7.35863 -0.907163,-0.0927 -1.321791,-0.0229 -2.140191,0.3347 z m 2.149928,2.8681 c 0.685232,0.15591 1.081884,0.59301 1.204638,1.32175 0.09101,0.54027 0.06403,0.68696 -0.24941,1.12738 -0.313443,0.44042 -0.430622,0.51185 -0.983459,0.60498 -0.502579,0.0847 -0.728877,0.0452 -1.07275,-0.15525 -1.031629,-0.60149 -1.040394,-2.03425 -0.01726,-2.7105 0.441471,-0.29403 0.57968,-0.31731 1.118241,-0.18836 z m 1.020026,24.15839 c -0.405358,0.58512 -0.76694,1.04659 -0.794186,1.03824 -0.04403,-0.0313 0.441323,-6.43146 0.52595,-7.15637 0.0332,-0.18647 0.261232,0.86048 0.540333,2.36398 l 0.478048,2.68456 z m 4.588227,-3.13741 1.352282,3.11875 -1.012981,-0.7209 -1.010866,-0.70836 -0.412845,-2.52758 c -0.232806,-1.38208 -0.389688,-2.46687 -0.351859,-2.39572 0.04827,0.0565 0.683415,1.52584 1.436269,3.23381 z m -2.612133,9.65267 c -0.02091,0.0293 -0.544775,-0.0891 -1.158854,-0.28288 l -1.131742,-0.35203 0.877635,-1.2332 0.875521,-1.24576 0.295897,1.52651 c 0.154361,0.83971 0.274997,1.55588 0.241539,1.58737 z m 3.912399,-2.70055 1.159793,0.82541 -0.943514,0.68869 -0.93095,0.68657 -0.253971,-1.50774 c -0.139684,-0.82925 -0.241413,-1.50986 -0.216282,-1.51409 0.01256,-0.002 0.553643,0.37189 1.184924,0.82116 z m -4.616994,5.88151 c 0.0021,0.0125 -0.702135,0.97106 -1.567343,2.12462 l -1.571573,2.09952 0.168182,-2.06985 c 0.08183,-1.12499 0.172013,-2.27723 0.205071,-2.54122 l 0.04522,-0.49861 1.349707,0.4187 c 0.750306,0.2354 1.366503,0.44171 1.370736,0.46684 z m 9.712164,1.89145 c -0.01048,0.0147 -0.981369,-0.60995 -2.134812,-1.39764 l -2.11392,-1.42703 1.148512,-0.85242 1.150625,-0.83988 0.984188,2.23753 c 0.544669,1.23911 0.975855,2.26477 0.965407,2.27944 z m -6.923016,7.2261 c -0.06268,0.0881 -4.244468,-1.57205 -4.223707,-1.67891 0.01666,-0.0545 0.739694,-1.05492 1.6049,-2.2085 l 1.582023,-2.11418 0.541403,2.98401 c 0.287696,1.63125 0.518388,3.00078 0.495384,3.01758 z m 5.065514,-4.52283 1.514252,1.08872 -1.704641,1.46296 -1.692078,1.46082 -0.497361,-2.95265 -0.497362,-2.95265 0.687752,0.40099 c 0.373237,0.22138 1.352627,0.89627 2.189438,1.49181 z m -8.570438,6.65082 c 1.446256,0.53164 2.626407,1.01766 2.622309,1.07004 -0.0041,0.0524 -1.239755,1.38464 -2.75566,2.97085 -1.503344,1.58408 -2.897971,3.0465 -3.084053,3.24582 l -0.35127,0.36927 0.319569,-4.1627 c 0.371004,-4.70113 0.348259,-4.52933 0.497051,-4.48978 0.06705,0.0145 1.303682,0.4523 2.752054,0.9965 z m 14.659112,0.26998 c 0.942128,2.14125 1.70345,3.89947 1.709798,3.93716 0.0043,0.0251 -1.775719,-0.8767 -3.954041,-1.99569 l -3.964622,-2.05849 2.227581,-1.88699 c 1.23196,-1.04739 2.252708,-1.89122 2.267389,-1.88076 0.01467,0.0107 0.786452,1.75399 1.713895,3.88477 z m -8.476765,13.57361 c -0.05223,0.0735 -8.647106,-2.54894 -8.66192,-2.63689 0.0062,-0.0399 1.572244,-1.71199 3.483328,-3.71364 l 3.481346,-3.64869 0.8758,4.96919 c 0.473942,2.73695 0.84234,5.00066 0.821442,5.03003 z m 6.148625,-8.06473 4.272787,2.20041 -2.087791,1.56625 c -1.146393,0.865 -2.77605,2.08274 -3.604501,2.68744 l -1.531391,1.11074 -0.838108,-4.97553 c -0.668793,-3.97037 -0.796183,-4.95675 -0.655722,-4.88997 0.08808,0.0627 2.096584,1.09399 4.444726,2.30066 z m -11.707135,9.73752 c 2.447854,0.72472 4.430552,1.37274 4.416006,1.43979 -0.01652,0.132 -10.019901,10.31904 -10.080741,10.26468 -0.04403,-0.0313 0.877102,-12.4356 0.958033,-12.87563 0.02076,-0.10684 0.08769,-0.16981 0.154738,-0.15528 0.06705,0.0145 2.118793,0.61218 4.551964,1.32644 z m 21.05302,0.79517 c 1.436405,3.31131 2.603649,6.02192 2.57852,6.02615 -0.02513,0.004 -12.778017,-6.28499 -13.006563,-6.41447 -0.05873,-0.0418 7.535412,-5.58492 7.686186,-5.61031 0.06282,-0.0107 1.29289,2.68943 2.741857,5.99863 z m -13.107708,11.39476 c 0.757684,4.49809 1.323304,8.16282 1.268818,8.14615 -0.414896,-0.0851 -14.01129,-4.78516 -14.021871,-4.84799 -0.0063,-0.0377 2.486128,-2.57658 5.522308,-5.64637 3.038293,-3.05722 5.551669,-5.62547 5.568332,-5.67996 0.191896,-0.47163 0.401021,0.53974 1.662415,8.02817 z m 9.138791,-5.04098 c 3.842808,1.87229 6.98755,3.43577 6.993899,3.47346 0.01059,0.0629 -11.243589,8.88419 -11.517757,9.02082 -0.08161,0.0525 -0.580678,-2.6802 -1.475929,-7.99497 -1.15134,-6.83508 -1.329386,-8.04551 -1.163799,-7.98295 0.108969,0.0333 3.333341,1.60923 7.163586,3.48364 z m -15.971174,13.80233 7.159727,2.46353 -0.687992,0.67149 c -5.558285,5.43278 -15.370299,14.83817 -15.408128,14.767 -0.05039,-0.0691 1.410208,-19.08926 1.530145,-19.98809 0.03729,-0.23886 0.110294,-0.41913 0.152218,-0.40035 0.05449,0.0166 3.317858,1.13377 7.25403,2.48642 z m 29.374192,1.40916 c 2.269151,5.18672 4.109358,9.43785 4.098913,9.45253 -0.02918,0.0567 -20.097923,-9.31591 -20.127419,-9.41432 -0.03994,-0.0837 11.626072,-9.37501 11.850115,-9.42567 0.03554,-0.0189 1.911356,4.21331 4.178391,9.38746 z m -18.311058,14.94589 c 1.047635,6.21942 1.867099,11.31439 1.816838,11.32285 -0.228275,0.0256 -19.882287,-6.96186 -19.886654,-7.0645 0.0061,-0.11731 15.903286,-15.50937 16.077071,-15.55157 0.05026,-0.009 0.945109,5.0738 1.992745,11.29322 z m 11.357637,-7.13323 c 5.427542,2.53567 9.949501,4.68119 10.050152,4.74175 0.14681,0.10449 -1.522387,1.47101 -7.831382,6.43588 -4.415888,3.47016 -8.133067,6.40916 -8.26691,6.53508 l -0.259354,0.22456 -1.906906,-11.32059 c -1.178854,-6.99841 -1.854538,-11.31649 -1.783246,-11.27683 0.06918,0.0272 4.570103,2.12449 9.997646,4.66015 z m -21.398032,17.71413 c 5.434801,1.88839 9.964155,3.46413 10.073137,3.49747 0.190718,0.0583 -0.01851,0.19693 -9.068145,5.92062 -2.791268,1.76228 -6.865156,4.34789 -9.049634,5.72368 -2.18236,1.38838 -3.983953,2.50587 -4.0112,2.49753 -0.01679,-0.023 0.339392,-4.81208 0.79012,-10.65077 0.80547,-10.25281 0.836277,-10.60687 1.108731,-10.52355 0.150912,0.0521 4.722189,1.64663 10.156991,3.53502 z m 38.906493,-1.37232 c 2.36584,5.37717 4.21466,9.75606 4.13503,9.74363 -10.025094,-2.3685 -22.736635,-5.34401 -23.838881,-5.59765 -0.80678,-0.18713 -1.521376,-0.36394 -1.580101,-0.40574 -0.100657,-0.0605 16.861809,-13.57763 16.972906,-13.53174 0.01466,0.0107 1.959896,4.42478 4.311046,9.7915 z m -40.491755,17.35127 c -6.008386,4.37154 -10.949864,7.94317 -10.979226,7.92227 -0.05661,-0.0292 0.07865,-1.75758 0.155752,-1.99023 0.06255,-0.16558 21.31269,-13.77176 21.633015,-13.86449 0.06071,-0.0231 -4.80327,3.54834 -10.809541,7.93245 z m 34.077234,-6.79968 12.296641,2.89034 0.46056,1.04654 c 0.25236,0.5777 0.42284,1.0529 0.37047,1.0488 -0.0376,0.006 -5.86821,-1.77662 -12.954124,-3.9554 -7.08592,-2.17878 -12.786558,-3.95779 -12.679692,-3.93702 0.104743,0.009 5.739643,1.3202 12.506145,2.90674 z m -16.917102,13.09595 c 1.28256,7.61408 2.16141,13.13835 2.098592,13.14894 -0.06282,0.0107 -6.503186,-1.94101 -14.320498,-4.31961 l -14.219983,-4.33654 12.020874,-8.79546 c 6.617161,-4.82296 12.060683,-8.78925 12.123507,-8.79983 0.04815,-0.0211 1.08056,5.87792 2.29751,13.1025 z m 29.390433,-4.93779 c 0.0439,0.0313 -23.849176,17.5068 -23.974821,17.52797 -0.03769,0.006 -1.057548,-5.89474 -2.274497,-13.11931 l -2.211673,-13.12988 14.207417,4.33865 c 7.806864,2.3933 14.224214,4.36167 14.253574,4.38257 z"
       id="path2"
       style="display:inline;fill:#ededed;fill-opacity:1;stroke:none;stroke-width:0.0127415;stroke-opacity:0.5" /><path
       sodipodi:type="star"
       style="fill:#f9f9f9;fill-opacity:1;stroke:none;stroke-width:1.32292;stroke-opacity:0.5;paint-order:markers stroke fill"
       id="path6"
       inkscape:flatsided="false"
       sodipodi:sides="4"
       sodipodi:cx="128.68739"
       sodipodi:cy="10.752117"
       sodipodi:r1="6.3727522"
       sodipodi:r2="3.1863763"
       sodipodi:arg1="1.0075413"
       sodipodi:arg2="1.7929395"
       inkscape:rounded="0"
       inkscape:randomized="0"
       d="m 132.09007,16.140417 -4.1047,-2.280221 -4.68628,0.294596 2.28022,-4.104699 -0.29459,-4.6862755 4.1047,2.2802205 4.68627,-0.2945959 -2.28022,4.1046999 z"
       inkscape:transform-center-x="1.7640228e-06"
       transform="matrix(0.67123286,0,0,0.67123286,50.528394,12.563433)" /></g><g
     inkscape:groupmode="layer"
     id="layer2"
     inkscape:label="Title"
     sodipodi:insensitive="true"
     style="display:inline"><g
       id="g4"
       style="fill:#f9f9f9"><text
         xml:space="preserve"
         style="font-size:16.9333px;fill:#f9f9f9;stroke-width:0.264583"
         x="32.287846"
         y="53.616821"
         id="text1"><tspan
           sodipodi:role="line"
           id="tspan1"
           style="font-style:normal;font-variant:normal;font-weight:900;font-stretch:normal;font-size:16.9333px;font-family:Inter;-inkscape-font-specification:'Inter Heavy';fill:#f9f9f9;stroke-width:0.264583"
           x="32.287846"
           y="53.616821">AMATEUR RADIO</tspan><tspan
           sodipodi:role="line"
           style="font-style:italic;font-variant:normal;font-weight:900;font-stretch:normal;font-size:16.9333px;font-family:Inter;-inkscape-font-specification:'Inter Heavy Italic';fill:#f9f9f9;stroke-width:0.264583"
           x="32.287846"
           y="75.472694"
           id="tspan2">BOOKLET</tspan></text><text
         xml:space="preserve"
         style="font-size:16.9333px;fill:#f9f9f9;stroke-width:0.264583"
         x="136.99644"
         y="75.472702"
         id="text1-4"><tspan
           sodipodi:role="line"
           style="font-style:normal;font-variant:normal;font-weight:300;font-stretch:normal;font-size:16.9333px;font-family:Inter;-inkscape-font-specification:'Inter Light';fill:#f9f9f9;stroke-width:0.264583"
           x="136.99644"
           y="75.472702"
           id="tspan2-1">2024</tspan></text><text
         xml:space="preserve"
         style="font-size:6.35px;fill:#f9f9f9;stroke-width:0.264583"
         x="31.752666"
         y="32.150593"
         id="text1-4-9"><tspan
           sodipodi:role="line"
           style="font-style:normal;font-variant:normal;font-weight:normal;font-stretch:normal;font-size:6.35px;font-family:Inter;-inkscape-font-specification:Inter;fill:#f9f9f9;stroke-width:0.264583"
           x="31.752666"
           y="32.150593"
           id="tspan2-1-0"><tspan
   style="font-style:italic;font-variant:normal;font-weight:500;font-stretch:normal;font-family:Inter;-inkscape-font-specification:'Inter Medium Italic';fill:#f9f9f9"
   id="tspan5">Noël Martin</tspan> <tspan
   style="font-style:normal;font-variant:normal;font-weight:300;font-stretch:normal;font-family:Inter;-inkscape-font-specification:'Inter Light';fill:#f9f9f9"
   id="tspan6">F4JJD</tspan></tspan></text></g></g></svg>
